<mxfile host="Electron" modified="2024-10-13T07:41:35.523Z" agent="Mozilla/5.0 (Windows NT 10.0; Win64; x64) AppleWebKit/537.36 (KHTML, like Gecko) draw.io/24.6.4 Chrome/124.0.6367.207 Electron/30.0.6 Safari/537.36" etag="m4ewSNdb-9KL5N4gUzGn" version="24.6.4" type="device">
  <diagram name="第 1 页" id="j0aVdha9Oak0Rf72zOK6">
    <mxGraphModel dx="1421" dy="851" grid="1" gridSize="10" guides="1" tooltips="1" connect="1" arrows="1" fold="1" page="1" pageScale="1" pageWidth="1654" pageHeight="1169" math="0" shadow="0">
      <root>
        <mxCell id="0" />
        <mxCell id="1" parent="0" />
        <mxCell id="v8roQkE1nKQlWOgN66eH-4" value="" style="swimlane;startSize=0;" vertex="1" parent="1">
          <mxGeometry x="160" y="610" width="1130" height="230" as="geometry" />
        </mxCell>
        <mxCell id="v8roQkE1nKQlWOgN66eH-5" value="&lt;font style=&quot;font-size: 20px;&quot;&gt;数据底座构建&lt;/font&gt;" style="text;html=1;align=center;verticalAlign=middle;resizable=0;points=[];autosize=1;strokeColor=none;fillColor=none;" vertex="1" parent="v8roQkE1nKQlWOgN66eH-4">
          <mxGeometry x="10" y="10" width="140" height="40" as="geometry" />
        </mxCell>
        <mxCell id="v8roQkE1nKQlWOgN66eH-6" value="" style="swimlane;startSize=0;" vertex="1" parent="v8roQkE1nKQlWOgN66eH-4">
          <mxGeometry x="170" y="30" width="420" height="180" as="geometry" />
        </mxCell>
        <mxCell id="v8roQkE1nKQlWOgN66eH-2" value="svg轮廓" style="rounded=0;whiteSpace=wrap;html=1;fontSize=20;" vertex="1" parent="v8roQkE1nKQlWOgN66eH-6">
          <mxGeometry x="20" y="95" width="120" height="60" as="geometry" />
        </mxCell>
        <mxCell id="v8roQkE1nKQlWOgN66eH-1" value="obj模型" style="rounded=0;whiteSpace=wrap;html=1;fontSize=20;" vertex="1" parent="v8roQkE1nKQlWOgN66eH-6">
          <mxGeometry x="220" y="95" width="120" height="60" as="geometry" />
        </mxCell>
        <mxCell id="v8roQkE1nKQlWOgN66eH-7" value="actix-web图形向量化，已经搭建" style="text;html=1;align=center;verticalAlign=middle;resizable=0;points=[];autosize=1;strokeColor=none;fillColor=none;fontSize=20;" vertex="1" parent="v8roQkE1nKQlWOgN66eH-6">
          <mxGeometry x="30" y="23" width="310" height="40" as="geometry" />
        </mxCell>
        <mxCell id="v8roQkE1nKQlWOgN66eH-8" value="" style="swimlane;startSize=0;" vertex="1" parent="v8roQkE1nKQlWOgN66eH-4">
          <mxGeometry x="630" y="30" width="460" height="180" as="geometry" />
        </mxCell>
        <mxCell id="v8roQkE1nKQlWOgN66eH-3" value="文档描述性文本、表格数据录入" style="rounded=0;whiteSpace=wrap;html=1;fontSize=20;" vertex="1" parent="v8roQkE1nKQlWOgN66eH-8">
          <mxGeometry x="40" y="95" width="190" height="70" as="geometry" />
        </mxCell>
        <mxCell id="v8roQkE1nKQlWOgN66eH-10" value="spring-boot—结构化信息管理" style="text;html=1;align=center;verticalAlign=middle;resizable=0;points=[];autosize=1;strokeColor=none;fillColor=none;fontSize=20;" vertex="1" parent="v8roQkE1nKQlWOgN66eH-8">
          <mxGeometry x="100" y="40" width="280" height="40" as="geometry" />
        </mxCell>
        <mxCell id="v8roQkE1nKQlWOgN66eH-11" value="可管理对象svg、obj模型信息绑定" style="rounded=0;whiteSpace=wrap;html=1;fontSize=20;" vertex="1" parent="v8roQkE1nKQlWOgN66eH-8">
          <mxGeometry x="260" y="95" width="190" height="70" as="geometry" />
        </mxCell>
        <mxCell id="v8roQkE1nKQlWOgN66eH-12" value="" style="swimlane;startSize=0;" vertex="1" parent="1">
          <mxGeometry x="560" y="240" width="770" height="230" as="geometry" />
        </mxCell>
        <mxCell id="v8roQkE1nKQlWOgN66eH-13" value="&lt;span style=&quot;font-size: 20px;&quot;&gt;创意功能&lt;/span&gt;" style="text;html=1;align=center;verticalAlign=middle;resizable=0;points=[];autosize=1;strokeColor=none;fillColor=none;" vertex="1" parent="v8roQkE1nKQlWOgN66eH-12">
          <mxGeometry x="30" y="10" width="100" height="40" as="geometry" />
        </mxCell>
        <mxCell id="v8roQkE1nKQlWOgN66eH-22" value="信息搜索功能" style="rounded=0;whiteSpace=wrap;html=1;fontSize=20;" vertex="1" parent="v8roQkE1nKQlWOgN66eH-12">
          <mxGeometry x="10" y="80" width="190" height="70" as="geometry" />
        </mxCell>
        <mxCell id="v8roQkE1nKQlWOgN66eH-23" value="模型渲染" style="rounded=0;whiteSpace=wrap;html=1;fontSize=20;" vertex="1" parent="v8roQkE1nKQlWOgN66eH-12">
          <mxGeometry x="250" y="80" width="190" height="70" as="geometry" />
        </mxCell>
        <mxCell id="v8roQkE1nKQlWOgN66eH-24" value="模型信息可视化（单个模型对象、整体街区）" style="rounded=0;whiteSpace=wrap;html=1;fontSize=20;" vertex="1" parent="v8roQkE1nKQlWOgN66eH-12">
          <mxGeometry x="470" y="80" width="270" height="70" as="geometry" />
        </mxCell>
        <mxCell id="v8roQkE1nKQlWOgN66eH-25" value="" style="swimlane;startSize=0;" vertex="1" parent="1">
          <mxGeometry x="50" y="230" width="490" height="240" as="geometry" />
        </mxCell>
        <mxCell id="v8roQkE1nKQlWOgN66eH-28" value="按照模板填充好数据的Excel表" style="rounded=0;whiteSpace=wrap;html=1;fontSize=20;" vertex="1" parent="v8roQkE1nKQlWOgN66eH-25">
          <mxGeometry x="20" y="70" width="190" height="70" as="geometry" />
        </mxCell>
        <mxCell id="v8roQkE1nKQlWOgN66eH-26" value="输入" style="text;html=1;align=center;verticalAlign=middle;resizable=0;points=[];autosize=1;strokeColor=none;fillColor=none;fontSize=20;" vertex="1" parent="v8roQkE1nKQlWOgN66eH-25">
          <mxGeometry x="40" y="10" width="60" height="40" as="geometry" />
        </mxCell>
        <mxCell id="v8roQkE1nKQlWOgN66eH-32" value="规划图/轮廓图（涉及svg编辑器）" style="rounded=0;whiteSpace=wrap;html=1;fontSize=20;" vertex="1" parent="v8roQkE1nKQlWOgN66eH-25">
          <mxGeometry x="270" y="100" width="190" height="70" as="geometry" />
        </mxCell>
        <mxCell id="v8roQkE1nKQlWOgN66eH-33" value="模型参数" style="rounded=0;whiteSpace=wrap;html=1;fontSize=20;" vertex="1" parent="v8roQkE1nKQlWOgN66eH-25">
          <mxGeometry x="270" y="20" width="190" height="70" as="geometry" />
        </mxCell>
        <mxCell id="v8roQkE1nKQlWOgN66eH-34" value="建筑图例分类、信息绑定" style="rounded=0;whiteSpace=wrap;html=1;fontSize=20;" vertex="1" parent="v8roQkE1nKQlWOgN66eH-25">
          <mxGeometry x="20" y="150" width="190" height="70" as="geometry" />
        </mxCell>
        <mxCell id="v8roQkE1nKQlWOgN66eH-35" value="" style="endArrow=classic;html=1;rounded=0;exitX=0.468;exitY=0.994;exitDx=0;exitDy=0;exitPerimeter=0;entryX=0.31;entryY=0;entryDx=0;entryDy=0;entryPerimeter=0;" edge="1" parent="1" source="v8roQkE1nKQlWOgN66eH-25" target="v8roQkE1nKQlWOgN66eH-4">
          <mxGeometry width="50" height="50" relative="1" as="geometry">
            <mxPoint x="460" y="560" as="sourcePoint" />
            <mxPoint x="510" y="510" as="targetPoint" />
          </mxGeometry>
        </mxCell>
        <mxCell id="v8roQkE1nKQlWOgN66eH-36" value="" style="endArrow=classic;html=1;rounded=0;exitX=0.5;exitY=0;exitDx=0;exitDy=0;entryX=0.5;entryY=1;entryDx=0;entryDy=0;" edge="1" parent="1" source="v8roQkE1nKQlWOgN66eH-4" target="v8roQkE1nKQlWOgN66eH-12">
          <mxGeometry width="50" height="50" relative="1" as="geometry">
            <mxPoint x="289" y="479" as="sourcePoint" />
            <mxPoint x="520" y="620" as="targetPoint" />
          </mxGeometry>
        </mxCell>
      </root>
    </mxGraphModel>
  </diagram>
</mxfile>
